HIERARCHY
ROOT joint_0
{
	OFFSET -212.520721 1.693376 434.227997
	CHANNELS 6 Xposition Yposition Zposition Zrotation Yrotation Xrotation 
	JOINT joint_1
	{
		OFFSET -0.120043 80.091011 -5.542230
		CHANNELS 3 Zrotation Yrotation Xrotation
		JOINT joint_2
		{
			OFFSET 0.103631 1.856078 10.546989
			CHANNELS 3 Zrotation Yrotation Xrotation
			JOINT joint_3
			{
				OFFSET 43.452103 -0.000025 -0.000008
				CHANNELS 3 Zrotation Yrotation Xrotation
				JOINT joint_4
				{
					OFFSET 42.284668 0.000006 -0.000008
					CHANNELS 3 Zrotation Yrotation Xrotation
					JOINT joint_5
					{
						OFFSET 17.325636 -0.000003 -0.000002
						CHANNELS 3 Zrotation Yrotation Xrotation
						End Site
						{
							OFFSET 0.000000 0.000000 0.000000
						}
					}
				}
			}
		}
		JOINT joint_6
		{
			OFFSET 0.103607 1.856031 -10.547115
			CHANNELS 3 Zrotation Yrotation Xrotation
			JOINT joint_7
			{
				OFFSET 43.449978 -0.000024 0.000008
				CHANNELS 3 Zrotation Yrotation Xrotation
				JOINT joint_8
				{
					OFFSET 42.289135 0.000006 0.000008
					CHANNELS 3 Zrotation Yrotation Xrotation
					JOINT joint_9
					{
						OFFSET 17.324396 -0.000003 0.000001
						CHANNELS 3 Zrotation Yrotation Xrotation
						End Site
						{
							OFFSET 0.000000 0.000000 0.000000
						}
					}
				}
			}
		}
		JOINT joint_10
		{
			OFFSET 6.903595 -2.606905 -0.000000
			CHANNELS 3 Zrotation Yrotation Xrotation
			JOINT joint_11
			{
				OFFSET 12.581512 0.000006 0.000000
				CHANNELS 3 Zrotation Yrotation Xrotation
				JOINT joint_12
				{
					OFFSET 12.324461 -0.000004 0.000000
					CHANNELS 3 Zrotation Yrotation Xrotation
					JOINT joint_13
					{
						OFFSET 25.812691 -0.000002 0.000001
						CHANNELS 3 Zrotation Yrotation Xrotation
						JOINT joint_14
						{
							OFFSET 11.740427 0.000002 0.000000
							CHANNELS 3 Zrotation Yrotation Xrotation
							End Site
							{
								OFFSET 0.000000 0.000000 0.000000
							}
						}
					}
					JOINT joint_15
					{
						OFFSET 19.728807 -1.480347 5.999590
						CHANNELS 3 Zrotation Yrotation Xrotation
						JOINT joint_16
						{
							OFFSET 11.304765 -0.000014 -0.000005
							CHANNELS 3 Zrotation Yrotation Xrotation
							JOINT joint_17
							{
								OFFSET 32.938362 0.000014 0.000013
								CHANNELS 3 Zrotation Yrotation Xrotation
								JOINT joint_18
								{
									OFFSET 25.224983 0.000081 -0.000191
									CHANNELS 3 Zrotation Yrotation Xrotation
									End Site
									{
										OFFSET 0.000000 0.000000 0.000000
									}
								}
							}
						}
					}
					JOINT joint_19
					{
						OFFSET 19.731703 -1.480350 -5.999634
						CHANNELS 3 Zrotation Yrotation Xrotation
						JOINT joint_20
						{
							OFFSET 11.303930 -0.000014 0.000007
							CHANNELS 3 Zrotation Yrotation Xrotation
							JOINT joint_21
							{
								OFFSET 32.944035 0.000013 -0.000013
								CHANNELS 3 Zrotation Yrotation Xrotation
								JOINT joint_22
								{
									OFFSET 25.228008 0.000080 0.000206
									CHANNELS 3 Zrotation Yrotation Xrotation
									End Site
									{
										OFFSET 0.000000 0.000000 0.000000
									}
								}
							}
						}
					}
				}
			}
		}
	}
}
MOTION
Frames: 16
Frame Time: 0.016667
111.732994 -64.192093 1007.218262 0.000000 61.310112 0.000000 91.218445 -9.646114 84.555809 173.953812 -0.725915 146.399490 -3.066015 3.360260 -60.633698 -1.511020 -0.180086 84.918770 0.000011 0.003099 21.489136 -173.814835 4.522814 147.790436 -0.174841 -3.393165 -62.748676 5.798971 -3.845298 87.117897 -0.000007 -0.003100 21.484650 -0.422176 0.578854 8.564416 0.181012 0.328488 6.613372 -1.158788 0.745959 6.666965 -3.019585 1.029637 3.792810 1.395114 -3.331753 -7.575831 -6.763130 -79.897278 -174.553757 24.549841 40.884922 -18.336271 -1.979529 -11.588420 -42.844879 23.755583 -14.504309 7.130758 3.507060 79.599625 -177.380783 -20.115395 -43.163300 -8.943011 -1.908961 10.883807 -55.400600 -14.437265 14.960229 9.134184 
113.286888 -63.909195 1007.644348 0.000000 61.955906 0.000000 91.385658 -9.927862 84.453415 174.259308 -1.004277 145.759079 -2.768501 3.464584 -60.313675 -1.435088 -0.426131 84.671501 0.000011 0.003099 21.489256 -174.236069 4.569537 146.797623 -0.470472 -3.431439 -63.688950 5.739386 -3.702209 87.163689 -0.000006 -0.003100 21.485592 -0.517080 0.656859 8.540596 0.058035 0.435538 6.772772 -1.178687 0.769959 6.533495 -3.379054 0.993464 4.305946 2.171157 -3.424000 -7.778662 -6.754224 -79.980812 -174.620346 23.497370 41.148029 -19.261703 -2.081207 -11.864113 -42.995750 23.544346 -14.742501 7.173876 3.941893 79.629021 -176.934799 -19.673044 -42.854591 -9.993874 -1.767012 10.775485 -55.066685 -13.883654 15.137348 8.759068 
114.836266 -63.538998 1008.012085 0.000000 62.589657 0.000000 91.424492 -9.835093 84.338989 174.626938 -1.093744 145.419250 -2.616044 3.454402 -60.087208 -1.624299 -0.513245 84.282013 0.000011 0.003099 21.489529 -174.466751 4.466806 146.105011 -0.709926 -3.423052 -63.792843 5.825648 -3.679032 87.267517 -0.000006 -0.003100 21.485783 -0.576052 0.691134 8.541002 0.041269 0.518362 6.856969 -1.184923 0.759240 6.497758 -3.459541 0.930409 4.420212 2.320570 -3.552588 -7.830910 -6.146678 -79.934807 -175.265747 23.211359 41.232758 -19.855732 -2.135017 -12.088625 -43.199829 23.389339 -14.686164 7.247564 4.120656 79.639534 -176.743301 -19.601507 -42.635750 -10.662419 -1.790028 10.722838 -54.854401 -13.766401 15.330801 8.578585 
116.339584 -63.147068 1008.323669 0.000000 63.214806 0.000000 91.333366 -9.562931 84.351547 174.757339 -1.233858 145.652405 -2.596735 3.407852 -59.830936 -1.900968 -0.529229 84.265358 0.000012 0.003099 21.489824 -174.443024 4.283919 145.623962 -0.871873 -3.406898 -63.336559 5.951763 -3.742666 87.203430 -0.000006 -0.003100 21.485781 -0.574681 0.683186 8.544673 0.007877 0.560834 6.900299 -1.145176 0.764032 6.574790 -3.321457 0.869938 4.431897 2.011415 -3.885846 -7.924754 -5.773270 -79.866135 -175.644028 23.265327 41.116867 -20.013540 -2.305958 -12.258015 -43.033932 23.355616 -14.479686 7.306731 4.870727 79.639061 -175.963577 -19.873564 -42.570560 -10.803764 -1.783118 10.741486 -54.715038 -13.705112 15.586028 8.627534 
117.779694 -62.796967 1008.617859 0.000000 63.836193 0.000000 91.224960 -9.178363 84.408424 174.929459 -1.468012 145.913895 -2.534548 3.388475 -59.213318 -1.950517 -0.623307 84.363190 0.000011 0.003099 21.489849 -174.321869 4.256855 145.351959 -1.072606 -3.422450 -63.157322 6.030794 -3.796487 87.017166 -0.000005 -0.003100 21.485712 -0.558737 0.700424 8.570980 -0.048106 0.621555 6.957150 -1.107072 0.782713 6.655749 -3.239436 0.808512 4.413366 1.817875 -4.112822 -8.064715 -5.443812 -79.827438 -175.988983 23.363222 41.180740 -19.821241 -2.449626 -12.476429 -42.835880 23.379322 -14.235730 7.377050 5.616313 79.515800 -175.182983 -20.248905 -42.378746 -10.838278 -1.769494 10.830612 -54.665482 -13.527829 15.828467 8.671675 
119.175232 -62.490219 1008.901428 0.000000 64.469658 0.000000 91.188568 -8.867826 84.464836 175.170502 -1.615161 146.297729 -2.433923 3.413014 -58.844509 -1.963190 -0.687190 84.423500 0.000011 0.003098 21.489742 -174.267975 4.256405 145.142120 -1.247762 -3.418421 -63.238499 6.058853 -3.874144 86.768768 -0.000005 -0.003100 21.485594 -0.539140 0.717297 8.579304 -0.098745 0.663956 7.076669 -1.071408 0.811211 6.656480 -3.306665 0.806325 4.456874 1.842978 -4.304449 -8.050499 -5.403524 -79.859657 -176.037399 23.281788 41.315300 -19.822540 -2.535612 -12.687320 -42.653648 23.317427 -13.990391 7.439612 5.970445 79.401268 -174.791977 -20.919092 -42.380955 -10.654851 -1.742665 10.924067 -54.659100 -13.577805 16.088236 8.539583 
120.538353 -62.207691 1009.168030 0.000000 65.103310 0.000000 91.172241 -8.754243 84.466858 175.433670 -1.679003 146.535370 -2.469639 3.414577 -58.829296 -1.956668 -0.722915 84.440369 0.000011 0.003098 21.489759 -174.309967 4.183484 145.403625 -1.357519 -3.374511 -63.497108 6.046562 -3.953697 86.520218 -0.000005 -0.003100 21.485134 -0.509955 0.713914 8.574893 -0.092425 0.678919 7.196837 -1.092925 0.840083 6.605786 -3.482758 0.893383 4.572350 1.971961 -4.616652 -7.899000 -5.347714 -79.973572 -176.097519 23.363552 41.237373 -19.898809 -2.556936 -12.827204 -42.465027 23.265789 -13.613933 7.633492 5.888565 79.483406 -174.869476 -21.137911 -42.390888 -10.705688 -1.733244 10.924911 -54.720165 -13.733409 16.379244 8.391556 
121.872604 -61.979324 1009.410767 0.000000 65.718536 0.000000 91.214211 -8.636377 84.370911 175.676025 -1.663133 146.630310 -2.568305 3.417068 -58.990406 -1.957755 -0.766482 84.449638 0.000011 0.003098 21.489630 -174.300903 4.099919 145.870605 -1.582666 -3.311404 -63.619385 6.070724 -3.981556 86.385117 -0.000004 -0.003100 21.484764 -0.496903 0.708999 8.557289 -0.065696 0.692963 7.330910 -1.120852 0.847962 6.574275 -3.664854 0.945456 4.740725 2.154041 -4.750537 -7.863629 -4.983518 -80.146164 -176.488449 23.672667 41.228832 -19.873529 -2.598633 -12.903492 -42.213295 23.246773 -13.388969 7.824861 5.712771 79.522339 -175.039490 -21.179302 -42.392525 -10.775661 -1.829630 10.885236 -54.958572 -13.808448 16.477022 8.390114 
123.185387 -61.828114 1009.616394 0.000000 66.313988 0.000000 91.299721 -8.530265 84.258614 175.930191 -1.596515 146.679459 -2.674350 3.436951 -59.407761 -1.968801 -0.783880 84.433739 0.000011 0.003098 21.489454 -174.329102 4.030188 146.332520 -1.818181 -3.238198 -63.524334 6.142249 -3.993205 86.312675 -0.000004 -0.003100 21.484509 -0.504440 0.693792 8.530356 -0.013006 0.713084 7.448311 -1.162668 0.861006 6.531493 -3.879504 0.978398 4.926816 2.388796 -4.841818 -7.900801 -4.700519 -80.342102 -176.794861 24.190809 41.259239 -19.730623 -2.595793 -12.945219 -42.032288 23.274132 -13.308020 8.002973 5.388991 79.584702 -175.367996 -21.055904 -42.488628 -10.832944 -1.922180 10.865993 -55.105019 -13.761827 16.511927 8.429140 
124.476303 -61.749763 1009.783630 0.000000 66.891380 0.000000 91.407532 -8.451444 84.138565 176.182846 -1.509110 146.653336 -2.892695 3.439569 -60.134975 -1.947074 -0.756999 84.426407 0.000011 0.003098 21.489397 -174.444717 3.946229 146.835419 -2.092615 -3.164624 -63.429531 6.240761 -4.002662 86.279396 -0.000004 -0.003100 21.484194 -0.511538 0.673591 8.488367 0.066379 0.737765 7.572236 -1.254072 0.883902 6.431339 -4.115095 1.027198 5.065359 2.548068 -4.938953 -7.896200 -4.656145 -80.571327 -176.852585 24.849630 41.290131 -19.563635 -2.483468 -12.858896 -41.865593 23.346447 -13.309321 8.232474 4.653367 79.704353 -176.123734 -20.842981 -42.585297 -10.960895 -1.993547 10.815443 -55.227486 -13.636853 16.519213 8.500414 
125.755356 -61.759407 1009.917053 0.000000 67.443115 0.000000 91.503273 -8.313937 84.078415 176.356247 -1.329809 146.651993 -3.187420 3.455725 -61.159798 -1.925749 -0.659212 84.472519 0.000011 0.003097 21.489298 -174.412521 3.842727 147.462616 -2.376948 -3.078179 -63.159153 6.397974 -3.997324 86.297112 -0.000004 -0.003100 21.483767 -0.505975 0.656867 8.440374 0.180932 0.740352 7.687977 -1.360923 0.918114 6.324423 -4.396954 1.077370 5.116020 2.458231 -4.947039 -7.776344 -4.346639 -80.810806 -177.174530 25.863951 41.290756 -19.099119 -2.307144 -12.694382 -41.658794 23.455658 -13.347685 8.499961 3.961717 79.811142 -176.838425 -20.527372 -42.767242 -11.063174 -2.089656 10.762242 -55.481956 -13.560793 16.507765 8.624700 
127.032944 -61.873436 1010.023132 0.000000 67.973495 0.000000 91.588127 -7.991919 84.006905 176.417480 -1.050454 146.573151 -3.607846 3.434912 -62.372818 -2.077538 -0.514419 84.531540 0.000011 0.003097 21.489082 -174.268753 3.784931 148.114075 -2.467133 -2.988358 -62.735058 6.568828 -3.960513 86.324432 -0.000004 -0.003100 21.483027 -0.480483 0.635305 8.404595 0.337485 0.721567 7.771795 -1.467304 0.939130 6.264102 -4.546001 1.200456 5.016573 2.234427 -4.884929 -7.483926 -3.567026 -80.987587 -177.962799 27.141634 41.214191 -18.328136 -2.063493 -12.536150 -41.739220 23.593987 -13.358912 8.650437 3.589431 79.872635 -177.239578 -20.389700 -42.783905 -11.052423 -2.219342 10.746994 -55.744316 -13.707744 16.311785 8.760774 
128.320984 -62.100452 1010.111145 0.000000 68.494820 0.000000 91.630707 -7.679633 83.848244 176.313217 -0.730113 146.583786 -4.090115 3.354629 -63.301426 -2.313864 -0.331466 84.585831 0.000011 0.003097 21.488749 -174.044189 3.668630 148.773300 -2.394534 -2.867587 -62.145355 6.731022 -3.969903 86.379478 -0.000003 -0.003100 21.482164 -0.422291 0.610267 8.397526 0.516696 0.697061 7.783989 -1.555116 0.964663 6.216390 -4.581871 1.365798 4.865006 1.978137 -4.773647 -7.213755 -2.667620 -81.080521 -178.860809 28.370510 41.184467 -17.477221 -1.802312 -12.396957 -42.158562 23.658243 -13.244928 8.696949 3.753638 79.928558 -177.112152 -20.455534 -42.836094 -10.810143 -2.396629 10.739267 -56.012150 -14.026956 16.032665 8.866489 
129.637238 -62.423294 1010.207825 0.000000 69.016701 0.000000 91.571754 -7.523168 83.700211 175.946136 -0.418736 146.698364 -4.721922 3.214492 -63.672077 -2.538907 -0.056591 84.718506 0.000011 0.003097 21.488457 -173.669769 3.581969 149.275833 -2.203545 -2.776168 -61.528847 6.971485 -4.029763 86.387840 -0.000003 -0.003101 21.481676 -0.354753 0.599871 8.428208 0.689931 0.649990 7.750716 -1.651382 0.989939 6.180347 -4.539102 1.517007 4.685490 1.762357 -4.390723 -7.192108 -2.103395 -81.128693 -179.411438 29.534105 41.328796 -16.478121 -1.563352 -12.227160 -42.866974 23.642708 -13.103448 8.626554 4.134155 80.008072 -176.781952 -20.529495 -42.957073 -10.730960 -2.581701 10.750468 -56.355412 -14.638773 15.720784 8.938070 
131.015991 -62.795330 1010.348633 0.000000 69.543098 0.000000 91.336555 -7.385223 83.571556 175.519882 -0.180087 146.765274 -5.267461 3.026543 -63.623722 -2.722611 0.304354 84.702255 0.000011 0.003097 21.488548 -173.001038 3.507957 149.824936 -1.820923 -2.737680 -61.282242 7.229122 -4.101661 86.460320 -0.000003 -0.003101 21.481735 -0.273581 0.577012 8.483072 0.830413 0.560667 7.644422 -1.684854 0.984830 6.215186 -4.241235 1.603220 4.261807 1.554918 -3.522891 -6.991618 -1.827746 -81.046120 -179.675812 30.548841 41.585796 -15.306856 -1.301826 -12.036290 -43.991951 23.555529 -12.723741 8.489079 4.730563 80.141037 -176.228439 -20.941059 -42.858608 -10.587628 -2.790828 10.943352 -56.708439 -15.712223 15.397691 8.915207 
132.503357 -63.158680 1010.553345 0.000000 70.087471 0.000000 90.964050 -7.217127 83.612991 175.170319 -0.113534 146.680054 -5.762328 2.814596 -63.571518 -2.876236 0.657129 84.339355 0.000011 0.003098 21.488558 -172.157028 3.373667 150.947556 -1.323685 -2.760361 -61.142128 7.397590 -4.075993 86.543297 -0.000003 -0.003102 21.481436 -0.196675 0.580026 8.542879 0.849820 0.392118 7.448196 -1.662555 0.890305 6.366373 -3.758474 1.585343 3.557687 1.506467 -2.534994 -6.836820 -2.015616 -80.868164 -179.493988 31.625597 41.800766 -13.983777 -1.025007 -11.922741 -45.451900 23.377647 -12.412388 8.229287 5.940340 80.221924 -175.045929 -21.822031 -42.434727 -9.994925 -3.101392 11.300762 -57.197376 -16.875244 14.946239 8.746536 
